# xmcd
#
# Track frame offsets: 
#        150
#        25309
#        41272
#        71662
#        99646
#        120451
#        154265
#        192292
#        216847
#        232928
#        256836
#        280564
#        295716
#        313165
#        326423
#        341679
#
# Disc length: 4745 seconds
#
# Revision: 0
# Processed by: cddbd v1.5.2PL0 Copyright (c) Steve Scherf et al.
# Submitted via: ExactAudioCopy v1.0b3
#
DISCID=e0128710
DTITLE=Esther Phillips - Baby, I'm For Real! 1971-1974 [CD2]
DYEAR=2014
DGENRE=Soul
TTITLE0=Justified
TTITLE1=I've Only Known A Stranger
TTITLE2=I Got It Bad And That Ain't Good
TTITLE3=Black-Eyed Blues
TTITLE4=Too Many Roads
TTITLE5=You Could Have Had Me, Baby
TTITLE6=I Feel The Same
TTITLE7=Performance
TTITLE8=Doing Our Thing
TTITLE9=Disposable Society
TTITLE10=Living Alone (We're Gonna Make It)
TTITLE11=Such A Night
TTITLE12=Can't Trust Your Neighbour With Your Baby
TTITLE13=Brother, Brother
TTITLE14=I Can Stand A Little Rain
TTITLE15=What A Diff'rence A Day Makes (Single Edit)
EXTD=
EXTT0=
EXTT1=
EXTT2=
EXTT3=
EXTT4=
EXTT5=
EXTT6=
EXTT7=
EXTT8=
EXTT9=
EXTT10=
EXTT11=
EXTT12=
EXTT13=
EXTT14=
EXTT15=
PLAYORDER=
